<svg id="bad8b1f5-1543-4637-bb0d-15c542fa5b12" data-name="Layer 1" xmlns="http://www.w3.org/2000/svg" viewBox="0 0 463.2334 237.2983">
  <defs>
    <style>
      .a1923400-b8d0-4aed-8e0e-f370e1206e58, .fd2653b4-894f-480f-bffe-3728208b5079 {
        fill: none;
        stroke: #1d1d1b;
        stroke-linecap: round;
        stroke-miterlimit: 10;
      }

      .a1923400-b8d0-4aed-8e0e-f370e1206e58 {
        stroke-width: 2px;
      }

      .a02c4cf6-04b1-426b-8e75-effe47d3dda4, .b08a6532-7c76-45cf-b894-26c709c3d3c1, .b9d5c8ca-f85a-4627-8fd6-ba47c52c923a, .e3cdcb1c-67c2-43ef-9d84-4cac988e4b81, .f583f6bb-b58b-4b6e-80e7-d490054d7721 {
        fill: #1d1d1b;
      }

      .b9d5c8ca-f85a-4627-8fd6-ba47c52c923a {
        font-size: 18px;
      }

      .a02c4cf6-04b1-426b-8e75-effe47d3dda4, .b9d5c8ca-f85a-4627-8fd6-ba47c52c923a, .f583f6bb-b58b-4b6e-80e7-d490054d7721 {
        font-family: MicrosoftSansSerif, Microsoft Sans Serif;
      }

      .a02c4cf6-04b1-426b-8e75-effe47d3dda4, .a6d65c6a-86c6-4cd9-a8bc-3fc9efa7478c, .bcdb5944-0297-4280-b067-5ec852cc4faf, .bdae0b0e-e223-4110-9951-c6eb35986f4b, .bfaf34ff-18bc-4b97-a02e-13e6b202d450 {
        font-size: 14px;
      }

      .b08a6532-7c76-45cf-b894-26c709c3d3c1, .f583f6bb-b58b-4b6e-80e7-d490054d7721 {
        font-size: 12px;
      }

      .bfaf34ff-18bc-4b97-a02e-13e6b202d450 {
        fill: #e62a35;
      }

      .a6d65c6a-86c6-4cd9-a8bc-3fc9efa7478c, .b08a6532-7c76-45cf-b894-26c709c3d3c1, .bcdb5944-0297-4280-b067-5ec852cc4faf, .bdae0b0e-e223-4110-9951-c6eb35986f4b, .bfaf34ff-18bc-4b97-a02e-13e6b202d450 {
        font-family: TimesNewRomanPSMT, Times New Roman;
      }

      .a6d65c6a-86c6-4cd9-a8bc-3fc9efa7478c {
        fill: #ec681c;
      }

      .bdae0b0e-e223-4110-9951-c6eb35986f4b {
        fill: #93b722;
      }

      .bcdb5944-0297-4280-b067-5ec852cc4faf {
        fill: #47ac34;
      }
    </style>
  </defs>
  <line class="a1923400-b8d0-4aed-8e0e-f370e1206e58" x1="102.9314" y1="62.4624" x2="366.6422" y2="62.4624"/>
  <g>
    <line class="a1923400-b8d0-4aed-8e0e-f370e1206e58" x1="102.9314" y1="62.4624" x2="102.9314" y2="81.7776"/>
    <path class="e3cdcb1c-67c2-43ef-9d84-4cac988e4b81" d="M182.2048,326.3855c-2.1074-5.68-5.7031-12.7265-9.5117-17.0947l9.5117,3.44,9.51-3.44C187.906,313.659,184.31,320.7059,182.2048,326.3855Z" transform="translate(-79.2734 -232.5376)"/>
  </g>
  <line class="a1923400-b8d0-4aed-8e0e-f370e1206e58" x1="234.7866" y1="31.0769" x2="234.7866" y2="62.4624"/>
  <g>
    <line class="a1923400-b8d0-4aed-8e0e-f370e1206e58" x1="366.6422" y1="62.4624" x2="366.6422" y2="81.7776"/>
    <path class="e3cdcb1c-67c2-43ef-9d84-4cac988e4b81" d="M445.9156,326.3855c-2.1074-5.68-5.703-12.7265-9.5117-17.0947l9.5117,3.44,9.51-3.44C451.6169,313.659,448.0211,320.7059,445.9156,326.3855Z" transform="translate(-79.2734 -232.5376)"/>
  </g>
  <line class="fd2653b4-894f-480f-bffe-3728208b5079" x1="33.4189" y1="144.9497" x2="172.4439" y2="144.9497"/>
  <g>
    <line class="fd2653b4-894f-480f-bffe-3728208b5079" x1="33.4189" y1="144.9497" x2="33.4189" y2="158.9827"/>
    <polygon class="e3cdcb1c-67c2-43ef-9d84-4cac988e4b81" points="33.419 166.043 29.353 156.094 33.419 158.455 37.483 156.094 33.419 166.043"/>
  </g>
  <line class="fd2653b4-894f-480f-bffe-3728208b5079" x1="102.9313" y1="123.8561" x2="102.9313" y2="144.9497"/>
  <g>
    <line class="fd2653b4-894f-480f-bffe-3728208b5079" x1="172.444" y1="144.9497" x2="172.444" y2="158.9827"/>
    <polygon class="e3cdcb1c-67c2-43ef-9d84-4cac988e4b81" points="172.444 166.043 168.379 156.094 172.444 158.455 176.508 156.094 172.444 166.043"/>
  </g>
  <text class="b9d5c8ca-f85a-4627-8fd6-ba47c52c923a" transform="translate(150.7629 15.4425)">Dynamic Programing</text>
  <text class="a02c4cf6-04b1-426b-8e75-effe47d3dda4" transform="translate(55.517 110.0482)">Not Memorized</text>
  <text class="f583f6bb-b58b-4b6e-80e7-d490054d7721" transform="translate(145.3647 184.562)">Optimized</text>
  <text class="f583f6bb-b58b-4b6e-80e7-d490054d7721" transform="translate(0 184.562)">Unoptimized</text>
  <line class="fd2653b4-894f-480f-bffe-3728208b5079" x1="297.1297" y1="144.9497" x2="436.1547" y2="144.9497"/>
  <g>
    <line class="fd2653b4-894f-480f-bffe-3728208b5079" x1="297.1297" y1="144.9497" x2="297.1297" y2="158.9827"/>
    <polygon class="e3cdcb1c-67c2-43ef-9d84-4cac988e4b81" points="297.13 166.043 293.064 156.094 297.13 158.455 301.194 156.094 297.13 166.043"/>
  </g>
  <line class="fd2653b4-894f-480f-bffe-3728208b5079" x1="366.6421" y1="123.8561" x2="366.6421" y2="144.9497"/>
  <g>
    <line class="fd2653b4-894f-480f-bffe-3728208b5079" x1="436.1547" y1="144.9497" x2="436.1547" y2="158.9827"/>
    <polygon class="e3cdcb1c-67c2-43ef-9d84-4cac988e4b81" points="436.155 166.043 432.089 156.094 436.155 158.455 440.219 156.094 436.155 166.043"/>
  </g>
  <text class="f583f6bb-b58b-4b6e-80e7-d490054d7721" transform="translate(409.0755 184.562)">Optimized</text>
  <text class="f583f6bb-b58b-4b6e-80e7-d490054d7721" transform="translate(263.7108 184.562)">Unoptimized</text>
  <text class="a02c4cf6-04b1-426b-8e75-effe47d3dda4" transform="translate(331.9806 110.0483)">Memorized</text>
  <text class="bfaf34ff-18bc-4b97-a02e-13e6b202d450" transform="translate(9.9956 208.9624)">(~100 s)</text>
  <text class="a6d65c6a-86c6-4cd9-a8bc-3fc9efa7478c" transform="translate(150.7706 208.9624)">(~1.5 s)</text>
  <text class="bdae0b0e-e223-4110-9951-c6eb35986f4b" transform="translate(275.4565 209.4224)">(~0.5 s)</text>
  <text class="bcdb5944-0297-4280-b067-5ec852cc4faf" transform="translate(410.9812 209.4228)">(~0.05 s)</text>
  <text class="b08a6532-7c76-45cf-b894-26c709c3d3c1" transform="translate(46.2799 233.6187)">Degree list of length 50</text>
  <text class="b08a6532-7c76-45cf-b894-26c709c3d3c1" transform="translate(306.9906 233.6187)">Degree list of length 150</text>
</svg>
