<svg id="Layer_1" data-name="Layer 1" xmlns="http://www.w3.org/2000/svg" viewBox="0 0 270 180">
  <defs>
    <style>
      .cls-1, .cls-5 {
        fill: none;
      }

      .cls-2 {
        fill: #fff;
        stroke: #000;
        stroke-width: 3px;
      }

      .cls-3 {
        isolation: isolate;
        font-size: 14px;
        font-family: ArialMT, Arial;
      }

      .cls-4 {
        fill: #54c4d6;
      }

      .cls-5 {
        stroke: #54c4d6;
      }
    </style>
  </defs>
  <polygon class="cls-1" points="0 180 0 0 270 0 270 180 0 180"/>
  <g id="node1">
    <circle class="cls-2" cx="239" cy="85" r="24"/>
    <text class="cls-3" transform="translate(222.66 87.75)">(1, <tspan class="cls-4" x="20.23" y="0">2</tspan><tspan x="28.01" y="0">)</tspan></text>
  </g>
  <g id="node2">
    <circle class="cls-2" cx="189" cy="137" r="24"/>
    <text class="cls-3" transform="translate(172.99 140)">(2, <tspan class="cls-4" x="20.23" y="0">3</tspan><tspan x="28.01" y="0">)</tspan></text>
  </g>
  <g id="edge5">
    <path class="cls-5" d="M220,100c-5,6-11,12-16,17" transform="translate(2 2)"/>
  </g>
  <g id="node3">
    <circle class="cls-2" cx="111" cy="149" r="24"/>
    <text class="cls-3" transform="translate(94.66 152.65)">(3, <tspan class="cls-4" x="20.23" y="0">2</tspan><tspan x="28.01" y="0">)</tspan></text>
  </g>
  <g id="edge6">
    <path class="cls-5" d="M163,139c-10,1-21,3-30,4" transform="translate(2 2)"/>
  </g>
  <g id="node5">
    <circle class="cls-2" cx="172" cy="60" r="24"/>
    <text class="cls-3" transform="translate(156.66 63)">(5, <tspan class="cls-4" x="20.23" y="0">3</tspan><tspan x="28.01" y="0">)</tspan></text>
  </g>
  <g id="edge9">
    <path class="cls-5" d="M182,111c-2-9-5-20-7-29" transform="translate(2 2)"/>
  </g>
  <g id="node4">
    <circle class="cls-2" cx="94" cy="72" r="24"/>
    <text class="cls-3" transform="translate(77.66 75.31)">(4, <tspan class="cls-4" x="20.23" y="0">3</tspan><tspan x="28.01" y="0">)</tspan></text>
  </g>
  <g id="edge7">
    <path class="cls-5" d="M104,123c-2-9-5-20-7-29" transform="translate(2 2)"/>
  </g>
  <g id="edge3">
    <path class="cls-5" d="M116,66c10-1,21-3,30-4" transform="translate(2 2)"/>
  </g>
  <g id="edge4">
    <path class="cls-5" d="M193,66l21,9" transform="translate(2 2)"/>
  </g>
  <g id="node6">
    <circle class="cls-2" cx="31" cy="31" r="24"/>
    <text class="cls-3" transform="translate(14.66 34.38)">(6, <tspan class="cls-4" x="20.23" y="0">1</tspan><tspan x="28.01" y="0">)</tspan></text>
  </g>
  <g id="edge2">
    <path class="cls-5" d="M49,42c7,5,16,10,23,15" transform="translate(2 2)"/>
  </g>
</svg>
